<svg xmlns="http://www.w3.org/2000/svg" viewBox="0 0 32 32" role="img" aria-label="Brush">
  <rect width="32" height="32" rx="8" fill="#0a0a0a"/>
  <!-- bristles -->
  <path
    fill="#fafafa"
    d="M22 5.5c.8 0 1.5.7 1.5 1.5v2c0 .5-.2 1-.6 1.3l-9.2 8.4-3.4-3.4 8.4-9.2c.3-.4.8-.6 1.3-.6h2z"
  />
  <!-- ferrule -->
  <path fill="#a3a3a3" d="M10.3 15.3L8 17.6l1.8 1.8 2.3-2.3-1.8-1.8z"/>
  <!-- handle -->
  <path
    fill="#e5e5e5"
    d="M8 17.6L5.3 24c-.2.5-.1 1.1.3 1.4l.9.9c.4.4 1 .5 1.5.2L14.6 24l-2.3-2.3-1.8-1.8-2.5 2.5z"
  />
</svg>
